<?xml version="1.0" standalone="no"?><!DOCTYPE svg PUBLIC "-//W3C//DTD SVG 1.1//EN" "http://www.w3.org/Graphics/SVG/1.1/DTD/svg11.dtd"><svg t="1730982039251" class="icon" viewBox="0 0 1024 1024" version="1.1" xmlns="http://www.w3.org/2000/svg" p-id="24604" xmlns:xlink="http://www.w3.org/1999/xlink" width="200" height="200"><path d="M412.16 837.08c-62.76 0-114.66-47.38-121.81-108.25-69.17 2.4-126.26-53.78-126.26-122.6 0-67.64 55.02-122.66 122.66-122.66 27.47 0 54.16 9.41 75.64 26.26L488.73 395.1c-15.93-21.09-24.52-46.54-24.52-73.5 0-67.63 55.02-122.65 122.66-122.65 67.29 0 122.1 54.47 122.64 121.63 64.32 3.71 115.51 57.22 115.51 122.45 0 67.63-55.02 122.65-122.66 122.65-27.92 0-54.94-9.66-76.56-26.98L511.5 642.49c15.15 20.79 23.32 45.72 23.32 71.94 0 67.63-55.02 122.65-122.66 122.65zM309.42 687.25c4.64 0 9.18 1.65 12.77 4.75a19.526 19.526 0 0 1 6.7 16.23c-0.17 2.19-0.33 4.17-0.33 6.19 0 46.1 37.51 83.6 83.6 83.6 46.1 0 83.61-37.51 83.61-83.6 0-22.61-8.92-43.8-25.13-59.69a19.57 19.57 0 0 1-5.85-14.31c0.1-5.38 2.41-10.47 6.39-14.08l141.7-128.64c3.84-3.48 8.97-5.12 14.08-5.05a19.53 19.53 0 0 1 13.52 6.39c15.87 17.53 38.44 27.58 61.9 27.58 46.1 0 83.61-37.51 83.61-83.6s-37.51-83.6-83.61-83.6c-3.43 0-7.11 0.29-11.57 0.9-6.24 0.89-12.49-1.31-16.83-5.87a19.536 19.536 0 0 1-5.03-17.11c1.02-5.36 1.54-10.66 1.54-15.75 0-46.1-37.51-83.6-83.6-83.6-46.1 0-83.61 37.51-83.61 83.6 0 23.17 9.34 44.75 26.31 60.75a19.508 19.508 0 0 1-0.27 28.65l-153.86 139.7c-7.92 7.19-20.17 6.66-27.45-1.18-16.06-17.35-37.82-26.89-61.27-26.89-46.1 0-83.61 37.51-83.61 83.62 0 52.08 47.74 93.68 102.01 81.5 1.42-0.33 2.86-0.49 4.28-0.49z" fill="#1296db" p-id="24605"></path></svg>